<svg width="231" height="13" viewBox="0 0 231 13" fill="none" xmlns="http://www.w3.org/2000/svg">
<path d="M6.32054 0.339996C6.32054 0.246996 6.36724 0.199997 6.46054 0.199997H7.17454C7.26794 0.199997 7.31454 0.246996 7.31454 0.339996V9.86C7.31454 9.953 7.26794 10 7.17454 10H6.46054C6.36724 10 6.32054 9.953 6.32054 9.86V5.562C6.32054 5.525 6.30194 5.506 6.26454 5.506H1.79854C1.76124 5.506 1.74254 5.525 1.74254 5.562V9.86C1.74254 9.953 1.69594 10 1.60254 10H0.888542C0.795242 10 0.748535 9.953 0.748535 9.86V0.339996C0.748535 0.246996 0.795242 0.199997 0.888542 0.199997H1.60254C1.69594 0.199997 1.74254 0.246996 1.74254 0.339996V4.582C1.74254 4.619 1.76124 4.638 1.79854 4.638H6.26454C6.30194 4.638 6.32054 4.619 6.32054 4.582V0.339996ZM15.1447 5.26801C15.182 5.52901 15.2007 5.856 15.2007 6.248V6.696C15.2007 6.789 15.154 6.836 15.0607 6.836H10.5387C10.5013 6.836 10.4827 6.855 10.4827 6.892C10.5013 7.405 10.5293 7.737 10.5667 7.886C10.6693 8.306 10.8887 8.637 11.2247 8.88C11.5607 9.123 11.99 9.244 12.5127 9.244C12.9047 9.244 13.25 9.155 13.5487 8.978C13.8473 8.801 14.0807 8.549 14.2487 8.222C14.3047 8.138 14.37 8.119 14.4447 8.166L14.9907 8.48801C15.0653 8.53501 15.084 8.60001 15.0467 8.68401C14.8133 9.13201 14.4633 9.487 13.9967 9.748C13.53 10 12.9933 10.126 12.3867 10.126C11.724 10.117 11.1687 9.95799 10.7207 9.64999C10.2727 9.34199 9.95074 8.913 9.75474 8.362C9.58674 7.914 9.50274 7.26999 9.50274 6.42999C9.50274 6.03799 9.50734 5.721 9.51674 5.478C9.53534 5.226 9.57274 5.002 9.62874 4.806C9.78734 4.199 10.1047 3.71401 10.5807 3.35001C11.066 2.98601 11.6493 2.804 12.3307 2.804C13.18 2.804 13.8333 3.019 14.2907 3.448C14.748 3.877 15.0327 4.48401 15.1447 5.26801ZM12.3307 3.672C11.8733 3.672 11.4907 3.793 11.1827 4.036C10.884 4.269 10.688 4.58701 10.5947 4.98801C10.5387 5.18401 10.5013 5.501 10.4827 5.94C10.4827 5.977 10.5013 5.996 10.5387 5.996H14.1647C14.202 5.996 14.2207 5.977 14.2207 5.94C14.202 5.52 14.174 5.22101 14.1367 5.04401C14.034 4.62401 13.824 4.293 13.5067 4.05C13.1987 3.798 12.8067 3.672 12.3307 3.672ZM17.3175 10C17.2242 10 17.1775 9.953 17.1775 9.86V0.339996C17.1775 0.246996 17.2242 0.199997 17.3175 0.199997H18.0315C18.1249 0.199997 18.1715 0.246996 18.1715 0.339996V9.86C18.1715 9.953 18.1249 10 18.0315 10H17.3175ZM25.9059 4.67999C26.0459 5.12799 26.1159 5.72099 26.1159 6.45799C26.1159 7.20499 26.0559 7.783 25.9339 8.194C25.7659 8.791 25.4579 9.263 25.0099 9.608C24.5719 9.944 24.0159 10.112 23.3439 10.112C22.9799 10.112 22.6439 10.042 22.3359 9.90199C22.0279 9.75299 21.7719 9.543 21.5659 9.272C21.5479 9.253 21.5289 9.249 21.5099 9.258C21.5009 9.258 21.4959 9.267 21.4959 9.286V12.576C21.4959 12.669 21.4499 12.716 21.3559 12.716H20.6419C20.5489 12.716 20.5019 12.669 20.5019 12.576V3.056C20.5019 2.963 20.5489 2.916 20.6419 2.916H21.3559C21.4499 2.916 21.4959 2.963 21.4959 3.056V3.644C21.4959 3.663 21.5009 3.677 21.5099 3.686C21.5289 3.686 21.5479 3.677 21.5659 3.658C21.7719 3.387 22.0239 3.177 22.3219 3.028C22.6299 2.879 22.9709 2.804 23.3439 2.804C23.9979 2.804 24.5439 2.972 24.9819 3.308C25.4299 3.644 25.7379 4.10099 25.9059 4.67999ZM24.7999 8.222C24.9029 8.017 24.9779 7.788 25.0239 7.536C25.0799 7.275 25.1079 6.91499 25.1079 6.45799C25.1079 6.01899 25.0899 5.679 25.0519 5.436C25.0149 5.184 24.9499 4.96001 24.8559 4.76401C24.7439 4.42801 24.5439 4.162 24.2539 3.966C23.9739 3.77 23.6379 3.672 23.2459 3.672C22.8729 3.672 22.5599 3.77 22.3079 3.966C22.0559 4.162 21.8699 4.423 21.7479 4.75C21.6639 4.937 21.6039 5.156 21.5659 5.408C21.5289 5.66 21.5099 6.00999 21.5099 6.45799C21.5099 6.90599 21.5289 7.261 21.5659 7.522C21.6039 7.774 21.6689 7.998 21.7619 8.194C21.8739 8.511 22.0559 8.768 22.3079 8.964C22.5699 9.151 22.8779 9.244 23.2319 9.244C23.6059 9.244 23.9279 9.151 24.1979 8.964C24.4779 8.777 24.6789 8.53 24.7999 8.222ZM35.2159 3.056C35.2159 2.963 35.2619 2.916 35.3559 2.916H36.0699C36.1629 2.916 36.2099 2.963 36.2099 3.056V9.86C36.2099 9.953 36.1629 10 36.0699 10H35.3559C35.2619 10 35.2159 9.953 35.2159 9.86V9.258C35.2159 9.239 35.2059 9.225 35.1879 9.216C35.1689 9.207 35.1549 9.211 35.1459 9.23C34.7539 9.809 34.1329 10.098 33.2839 10.098C32.8359 10.098 32.4199 10.009 32.0379 9.832C31.6639 9.645 31.3659 9.379 31.1419 9.034C30.9269 8.689 30.8199 8.27299 30.8199 7.78799V3.056C30.8199 2.963 30.8659 2.916 30.9599 2.916H31.6739C31.7669 2.916 31.8139 2.963 31.8139 3.056V7.494C31.8139 8.026 31.9629 8.451 32.2619 8.76801C32.5599 9.076 32.9659 9.23 33.4799 9.23C34.0119 9.23 34.4319 9.071 34.7399 8.754C35.0569 8.437 35.2159 8.017 35.2159 7.494V3.056ZM40.7609 10.07C40.2389 10.07 39.7719 9.98599 39.3609 9.81799C38.9599 9.64999 38.6469 9.426 38.4229 9.146C38.2089 8.866 38.1009 8.55299 38.1009 8.20799V8.03999C38.1009 7.94699 38.1479 7.89999 38.2409 7.89999H38.9129C39.0069 7.89999 39.0529 7.94699 39.0529 8.03999V8.15199C39.0529 8.45999 39.2119 8.731 39.5289 8.964C39.8559 9.188 40.2619 9.3 40.7469 9.3C41.2329 9.3 41.6249 9.193 41.9229 8.978C42.2219 8.754 42.3709 8.474 42.3709 8.138C42.3709 7.905 42.2919 7.713 42.1329 7.564C41.9839 7.415 41.8019 7.298 41.5869 7.214C41.3819 7.13 41.0599 7.023 40.6209 6.892C40.0989 6.743 39.6689 6.593 39.3329 6.444C38.9969 6.295 38.7129 6.089 38.4789 5.828C38.2549 5.557 38.1429 5.217 38.1429 4.806C38.1429 4.209 38.3769 3.73301 38.8429 3.37801C39.3099 3.02301 39.9259 2.84599 40.6909 2.84599C41.2049 2.84599 41.6569 2.93001 42.0489 3.09801C42.4509 3.26601 42.7589 3.499 42.9729 3.798C43.1879 4.087 43.2949 4.414 43.2949 4.778V4.82001C43.2949 4.91301 43.2489 4.96001 43.1549 4.96001H42.4969C42.4039 4.96001 42.3569 4.91301 42.3569 4.82001V4.778C42.3569 4.461 42.2029 4.195 41.8949 3.98C41.5969 3.765 41.1909 3.658 40.6769 3.658C40.2009 3.658 39.8189 3.756 39.5289 3.952C39.2399 4.139 39.0949 4.39999 39.0949 4.73599C39.0949 5.05299 39.2349 5.296 39.5149 5.464C39.7949 5.632 40.2289 5.8 40.8169 5.968C41.3589 6.127 41.7969 6.276 42.1329 6.416C42.4689 6.556 42.7589 6.761 43.0009 7.032C43.2439 7.293 43.3649 7.63899 43.3649 8.06799C43.3649 8.67499 43.1269 9.16 42.6509 9.524C42.1749 9.888 41.5449 10.07 40.7609 10.07ZM51.1579 3.60201C51.1579 3.695 51.1119 3.742 51.0179 3.742H49.4359C49.3989 3.742 49.3799 3.761 49.3799 3.798V7.92799C49.3799 8.37599 49.4779 8.693 49.6739 8.88C49.8799 9.057 50.1969 9.146 50.6259 9.146H50.9759C51.0699 9.146 51.1159 9.193 51.1159 9.286V9.86C51.1159 9.953 51.0699 10 50.9759 10C50.8639 10.009 50.6919 10.014 50.4579 10.014C49.7859 10.014 49.2779 9.888 48.9319 9.636C48.5869 9.384 48.4139 8.91699 48.4139 8.23599V3.798C48.4139 3.761 48.3959 3.742 48.3579 3.742H47.5039C47.4109 3.742 47.3639 3.695 47.3639 3.60201V3.056C47.3639 2.963 47.4109 2.916 47.5039 2.916H48.3579C48.3959 2.916 48.4139 2.897 48.4139 2.86V1.23599C48.4139 1.14299 48.4609 1.09599 48.5539 1.09599H49.2399C49.3339 1.09599 49.3799 1.14299 49.3799 1.23599V2.86C49.3799 2.897 49.3989 2.916 49.4359 2.916H51.0179C51.1119 2.916 51.1579 2.963 51.1579 3.056V3.60201ZM55.5769 10.112C54.9049 10.112 54.3259 9.93899 53.8409 9.59399C53.3559 9.24899 53.0199 8.773 52.8329 8.166C52.7019 7.737 52.6369 7.163 52.6369 6.444C52.6369 5.725 52.7019 5.15599 52.8329 4.73599C53.0099 4.13899 53.3419 3.66701 53.8269 3.32201C54.3119 2.97701 54.8999 2.804 55.5909 2.804C56.2539 2.804 56.8229 2.97701 57.2989 3.32201C57.7839 3.66701 58.1159 4.134 58.2929 4.722C58.4239 5.123 58.4889 5.697 58.4889 6.444C58.4889 7.2 58.4239 7.774 58.2929 8.166C58.1159 8.773 57.7839 9.24899 57.2989 9.59399C56.8229 9.93899 56.2489 10.112 55.5769 10.112ZM55.5769 9.244C56.0249 9.244 56.4079 9.123 56.7249 8.88C57.0419 8.62801 57.2569 8.29199 57.3689 7.87199C57.4529 7.53599 57.4949 7.06499 57.4949 6.45799C57.4949 5.84199 57.4579 5.37101 57.3829 5.04401C57.2709 4.62401 57.0519 4.293 56.7249 4.05C56.4079 3.798 56.0199 3.672 55.5629 3.672C55.1059 3.672 54.7179 3.798 54.4009 4.05C54.0839 4.293 53.8689 4.62401 53.7569 5.04401C53.6819 5.37101 53.6449 5.84199 53.6449 6.45799C53.6449 7.07399 53.6819 7.54499 53.7569 7.87199C53.8599 8.29199 54.0699 8.62801 54.3869 8.88C54.7139 9.123 55.1099 9.244 55.5769 9.244ZM65.9809 10.112C65.3089 10.112 64.7299 9.93899 64.2449 9.59399C63.7689 9.23899 63.4419 8.763 63.2649 8.166C63.1429 7.755 63.0829 7.17699 63.0829 6.42999C63.0829 5.75799 63.1429 5.189 63.2649 4.722C63.4329 4.143 63.7589 3.681 64.2449 3.336C64.7299 2.981 65.3089 2.804 65.9809 2.804C66.6619 2.804 67.2499 2.97701 67.7449 3.32201C68.2489 3.66701 68.5749 4.097 68.7249 4.61C68.7709 4.778 68.7989 4.918 68.8089 5.03V5.058C68.8089 5.123 68.7669 5.16501 68.6829 5.18401L67.9829 5.282H67.9549C67.8889 5.282 67.8469 5.24001 67.8289 5.15601L67.7869 4.946C67.7029 4.591 67.4969 4.293 67.1709 4.05C66.8439 3.798 66.4469 3.672 65.9809 3.672C65.5139 3.672 65.1219 3.798 64.8049 4.05C64.4969 4.293 64.2959 4.619 64.2029 5.03C64.1189 5.385 64.0769 5.856 64.0769 6.444C64.0769 7.06 64.1189 7.53599 64.2029 7.87199C64.2959 8.29199 64.4969 8.62801 64.8049 8.88C65.1219 9.123 65.5139 9.244 65.9809 9.244C66.4379 9.244 66.8299 9.127 67.1569 8.894C67.4929 8.651 67.7029 8.343 67.7869 7.97V7.914L67.8009 7.858C67.8099 7.765 67.8659 7.727 67.9689 7.746L68.6549 7.858C68.7479 7.877 68.7899 7.92799 68.7809 8.01199L68.7249 8.29201C68.5849 8.83301 68.2629 9.272 67.7589 9.608C67.2549 9.944 66.6619 10.112 65.9809 10.112ZM73.4359 2.84599C73.7439 2.84599 74.0099 2.907 74.2339 3.028C74.3089 3.065 74.3369 3.12601 74.3179 3.21001L74.1639 3.896C74.1359 3.989 74.0749 4.017 73.9819 3.98C73.8229 3.915 73.6409 3.882 73.4359 3.882L73.2539 3.896C72.7689 3.915 72.3669 4.097 72.0499 4.442C71.7329 4.778 71.5739 5.207 71.5739 5.73V9.86C71.5739 9.953 71.5269 10 71.4339 10H70.7199C70.6269 10 70.5799 9.953 70.5799 9.86V3.056C70.5799 2.963 70.6269 2.916 70.7199 2.916H71.4339C71.5269 2.916 71.5739 2.963 71.5739 3.056V3.91C71.5739 3.938 71.5789 3.957 71.5879 3.966C71.6069 3.966 71.6209 3.957 71.6299 3.938C71.8259 3.593 72.0729 3.327 72.3719 3.14C72.6799 2.944 73.0349 2.84599 73.4359 2.84599ZM81.0429 5.26801C81.0809 5.52901 81.0989 5.856 81.0989 6.248V6.696C81.0989 6.789 81.0529 6.836 80.9589 6.836H76.4369C76.3999 6.836 76.3809 6.855 76.3809 6.892C76.3999 7.405 76.4279 7.737 76.4649 7.886C76.5679 8.306 76.7869 8.637 77.1229 8.88C77.4589 9.123 77.8889 9.244 78.4109 9.244C78.8029 9.244 79.1489 9.155 79.4469 8.978C79.7459 8.801 79.9789 8.549 80.1469 8.222C80.2029 8.138 80.2689 8.119 80.3429 8.166L80.8889 8.48801C80.9639 8.53501 80.9829 8.60001 80.9449 8.68401C80.7119 9.13201 80.3619 9.487 79.8949 9.748C79.4289 10 78.8919 10.126 78.2849 10.126C77.6229 10.117 77.0669 9.95799 76.6189 9.64999C76.1709 9.34199 75.8489 8.913 75.6529 8.362C75.4849 7.914 75.4009 7.26999 75.4009 6.42999C75.4009 6.03799 75.4059 5.721 75.4149 5.478C75.4339 5.226 75.4709 5.002 75.5269 4.806C75.6859 4.199 76.0029 3.71401 76.4789 3.35001C76.9649 2.98601 77.5479 2.804 78.2289 2.804C79.0789 2.804 79.7319 3.019 80.1889 3.448C80.6469 3.877 80.9309 4.48401 81.0429 5.26801ZM78.2289 3.672C77.7719 3.672 77.3889 3.793 77.0809 4.036C76.7829 4.269 76.5869 4.58701 76.4929 4.98801C76.4369 5.18401 76.3999 5.501 76.3809 5.94C76.3809 5.977 76.3999 5.996 76.4369 5.996H80.0629C80.1009 5.996 80.1189 5.977 80.1189 5.94C80.1009 5.52 80.0729 5.22101 80.0349 5.04401C79.9329 4.62401 79.7229 4.293 79.4049 4.05C79.0969 3.798 78.7049 3.672 78.2289 3.672ZM85.4579 2.804C86.2979 2.804 86.9459 3.019 87.4039 3.448C87.8609 3.877 88.0899 4.44701 88.0899 5.15601V9.86C88.0899 9.953 88.0429 10 87.9499 10H87.2359C87.1419 10 87.0959 9.953 87.0959 9.86V9.286C87.0959 9.267 87.0859 9.253 87.0679 9.244C87.0579 9.235 87.0439 9.239 87.0259 9.258C86.7919 9.538 86.4889 9.75299 86.1159 9.90199C85.7419 10.042 85.3269 10.112 84.8699 10.112C84.2069 10.112 83.6519 9.944 83.2039 9.608C82.7559 9.272 82.5319 8.75899 82.5319 8.06799C82.5319 7.36799 82.7839 6.817 83.2879 6.416C83.8009 6.005 84.5099 5.8 85.4159 5.8H87.0399C87.0769 5.8 87.0959 5.781 87.0959 5.744V5.21201C87.0959 4.73601 86.9599 4.363 86.6899 4.092C86.4279 3.812 86.0179 3.672 85.4579 3.672C85.0099 3.672 84.6459 3.761 84.3659 3.938C84.0859 4.106 83.9129 4.34399 83.8479 4.65199C83.8199 4.74499 83.7639 4.787 83.6799 4.778L82.9239 4.67999C82.8209 4.66099 82.7789 4.62399 82.7979 4.56799C82.8719 4.04499 83.1519 3.62101 83.6379 3.29401C84.1229 2.96701 84.7299 2.804 85.4579 2.804ZM85.0659 9.258C85.6159 9.258 86.0919 9.123 86.4939 8.85201C86.8949 8.57201 87.0959 8.19899 87.0959 7.73199V6.64C87.0959 6.603 87.0769 6.584 87.0399 6.584H85.5699C84.9539 6.584 84.4589 6.71001 84.0859 6.96201C83.7119 7.21401 83.5259 7.56399 83.5259 8.01199C83.5259 8.42299 83.6659 8.735 83.9459 8.95C84.2349 9.155 84.6079 9.258 85.0659 9.258ZM93.2809 3.60201C93.2809 3.695 93.2349 3.742 93.1409 3.742H91.5589C91.5219 3.742 91.5029 3.761 91.5029 3.798V7.92799C91.5029 8.37599 91.6009 8.693 91.7969 8.88C92.0029 9.057 92.3199 9.146 92.7489 9.146H93.0989C93.1929 9.146 93.2389 9.193 93.2389 9.286V9.86C93.2389 9.953 93.1929 10 93.0989 10C92.9869 10.009 92.8149 10.014 92.5809 10.014C91.9089 10.014 91.4009 9.888 91.0549 9.636C90.7099 9.384 90.5369 8.91699 90.5369 8.23599V3.798C90.5369 3.761 90.5189 3.742 90.4809 3.742H89.6269C89.5339 3.742 89.4869 3.695 89.4869 3.60201V3.056C89.4869 2.963 89.5339 2.916 89.6269 2.916H90.4809C90.5189 2.916 90.5369 2.897 90.5369 2.86V1.23599C90.5369 1.14299 90.5839 1.09599 90.6769 1.09599H91.3629C91.4569 1.09599 91.5029 1.14299 91.5029 1.23599V2.86C91.5029 2.897 91.5219 2.916 91.5589 2.916H93.1409C93.2349 2.916 93.2809 2.963 93.2809 3.056V3.60201ZM100.43 5.26801C100.467 5.52901 100.486 5.856 100.486 6.248V6.696C100.486 6.789 100.439 6.836 100.346 6.836H95.8239C95.7869 6.836 95.7679 6.855 95.7679 6.892C95.7869 7.405 95.8149 7.737 95.8519 7.886C95.9549 8.306 96.1739 8.637 96.5099 8.88C96.8459 9.123 97.2749 9.244 97.7979 9.244C98.1899 9.244 98.5349 9.155 98.8339 8.978C99.1329 8.801 99.3659 8.549 99.5339 8.222C99.5899 8.138 99.6549 8.119 99.7299 8.166L100.276 8.48801C100.351 8.53501 100.369 8.60001 100.332 8.68401C100.099 9.13201 99.7489 9.487 99.2819 9.748C98.8149 10 98.2789 10.126 97.6719 10.126C97.0089 10.117 96.4539 9.95799 96.0059 9.64999C95.5579 9.34199 95.2359 8.913 95.0399 8.362C94.8719 7.914 94.7879 7.26999 94.7879 6.42999C94.7879 6.03799 94.7929 5.721 94.8019 5.478C94.8209 5.226 94.8579 5.002 94.9139 4.806C95.0729 4.199 95.3899 3.71401 95.8659 3.35001C96.3509 2.98601 96.9349 2.804 97.6159 2.804C98.4649 2.804 99.1189 3.019 99.5759 3.448C100.033 3.877 100.318 4.48401 100.43 5.26801ZM97.6159 3.672C97.1589 3.672 96.7759 3.793 96.4679 4.036C96.1689 4.269 95.9729 4.58701 95.8799 4.98801C95.8239 5.18401 95.7869 5.501 95.7679 5.94C95.7679 5.977 95.7869 5.996 95.8239 5.996H99.4499C99.4869 5.996 99.5059 5.977 99.5059 5.94C99.4869 5.52 99.4589 5.22101 99.4219 5.04401C99.3189 4.62401 99.1089 4.293 98.7919 4.05C98.4839 3.798 98.0919 3.672 97.6159 3.672ZM104.944 12.8C104.878 12.8 104.846 12.753 104.846 12.66V12.1C104.846 12.007 104.892 11.96 104.986 11.96H105.042C105.406 11.951 105.686 11.895 105.882 11.792C106.087 11.699 106.26 11.517 106.4 11.246C106.549 10.985 106.708 10.583 106.876 10.042C106.894 10.005 106.894 9.97699 106.876 9.95799L104.51 3.07001L104.496 3.01401C104.496 2.94901 104.538 2.916 104.622 2.916H105.364C105.448 2.916 105.504 2.953 105.532 3.028L107.352 8.68401C107.361 8.70301 107.375 8.71201 107.394 8.71201C107.412 8.71201 107.426 8.70301 107.436 8.68401L109.228 3.028C109.256 2.953 109.312 2.916 109.396 2.916H110.124C110.226 2.916 110.264 2.96701 110.236 3.07001L107.646 10.616C107.422 11.241 107.212 11.703 107.016 12.002C106.82 12.301 106.572 12.506 106.274 12.618C105.984 12.739 105.574 12.8 105.042 12.8H104.944ZM114.188 10.112C113.516 10.112 112.938 9.93899 112.452 9.59399C111.967 9.24899 111.631 8.773 111.444 8.166C111.314 7.737 111.248 7.163 111.248 6.444C111.248 5.725 111.314 5.15599 111.444 4.73599C111.622 4.13899 111.953 3.66701 112.438 3.32201C112.924 2.97701 113.512 2.804 114.202 2.804C114.865 2.804 115.434 2.97701 115.91 3.32201C116.396 3.66701 116.727 4.134 116.904 4.722C117.035 5.123 117.1 5.697 117.1 6.444C117.1 7.2 117.035 7.774 116.904 8.166C116.727 8.773 116.396 9.24899 115.91 9.59399C115.434 9.93899 114.86 10.112 114.188 10.112ZM114.188 9.244C114.636 9.244 115.019 9.123 115.336 8.88C115.654 8.62801 115.868 8.29199 115.98 7.87199C116.064 7.53599 116.106 7.06499 116.106 6.45799C116.106 5.84199 116.069 5.37101 115.994 5.04401C115.882 4.62401 115.663 4.293 115.336 4.05C115.019 3.798 114.632 3.672 114.174 3.672C113.717 3.672 113.33 3.798 113.012 4.05C112.695 4.293 112.48 4.62401 112.368 5.04401C112.294 5.37101 112.256 5.84199 112.256 6.45799C112.256 7.07399 112.294 7.54499 112.368 7.87199C112.471 8.29199 112.681 8.62801 112.998 8.88C113.325 9.123 113.722 9.244 114.188 9.244ZM123.399 3.056C123.399 2.963 123.446 2.916 123.539 2.916H124.253C124.346 2.916 124.393 2.963 124.393 3.056V9.86C124.393 9.953 124.346 10 124.253 10H123.539C123.446 10 123.399 9.953 123.399 9.86V9.258C123.399 9.239 123.39 9.225 123.371 9.216C123.352 9.207 123.338 9.211 123.329 9.23C122.937 9.809 122.316 10.098 121.467 10.098C121.019 10.098 120.604 10.009 120.221 9.832C119.848 9.645 119.549 9.379 119.325 9.034C119.11 8.689 119.003 8.27299 119.003 7.78799V3.056C119.003 2.963 119.05 2.916 119.143 2.916H119.857C119.95 2.916 119.997 2.963 119.997 3.056V7.494C119.997 8.026 120.146 8.451 120.445 8.76801C120.744 9.076 121.15 9.23 121.663 9.23C122.195 9.23 122.615 9.071 122.923 8.754C123.24 8.437 123.399 8.017 123.399 7.494V3.056ZM129.477 2.84599C129.785 2.84599 130.051 2.907 130.275 3.028C130.35 3.065 130.378 3.12601 130.359 3.21001L130.205 3.896C130.177 3.989 130.116 4.017 130.023 3.98C129.864 3.915 129.682 3.882 129.477 3.882L129.295 3.896C128.81 3.915 128.408 4.097 128.091 4.442C127.774 4.778 127.615 5.207 127.615 5.73V9.86C127.615 9.953 127.568 10 127.475 10H126.761C126.668 10 126.621 9.953 126.621 9.86V3.056C126.621 2.963 126.668 2.916 126.761 2.916H127.475C127.568 2.916 127.615 2.963 127.615 3.056V3.91C127.615 3.938 127.62 3.957 127.629 3.966C127.648 3.966 127.662 3.957 127.671 3.938C127.867 3.593 128.114 3.327 128.413 3.14C128.721 2.944 129.076 2.84599 129.477 2.84599ZM140.025 4.67999C140.165 5.12799 140.235 5.72099 140.235 6.45799C140.235 7.20499 140.175 7.783 140.053 8.194C139.885 8.791 139.577 9.263 139.129 9.608C138.691 9.944 138.135 10.112 137.463 10.112C137.099 10.112 136.763 10.042 136.455 9.90199C136.147 9.75299 135.891 9.543 135.685 9.272C135.667 9.253 135.648 9.249 135.629 9.258C135.62 9.258 135.615 9.267 135.615 9.286V12.576C135.615 12.669 135.569 12.716 135.475 12.716H134.761C134.668 12.716 134.621 12.669 134.621 12.576V3.056C134.621 2.963 134.668 2.916 134.761 2.916H135.475C135.569 2.916 135.615 2.963 135.615 3.056V3.644C135.615 3.663 135.62 3.677 135.629 3.686C135.648 3.686 135.667 3.677 135.685 3.658C135.891 3.387 136.143 3.177 136.441 3.028C136.749 2.879 137.09 2.804 137.463 2.804C138.117 2.804 138.663 2.972 139.101 3.308C139.549 3.644 139.857 4.10099 140.025 4.67999ZM138.919 8.222C139.022 8.017 139.097 7.788 139.143 7.536C139.199 7.275 139.227 6.91499 139.227 6.45799C139.227 6.01899 139.209 5.679 139.171 5.436C139.134 5.184 139.069 4.96001 138.975 4.76401C138.863 4.42801 138.663 4.162 138.373 3.966C138.093 3.77 137.757 3.672 137.365 3.672C136.992 3.672 136.679 3.77 136.427 3.966C136.175 4.162 135.989 4.423 135.867 4.75C135.783 4.937 135.723 5.156 135.685 5.408C135.648 5.66 135.629 6.00999 135.629 6.45799C135.629 6.90599 135.648 7.261 135.685 7.522C135.723 7.774 135.788 7.998 135.881 8.194C135.993 8.511 136.175 8.768 136.427 8.964C136.689 9.151 136.997 9.244 137.351 9.244C137.725 9.244 138.047 9.151 138.317 8.964C138.597 8.777 138.798 8.53 138.919 8.222ZM147.584 5.26801C147.622 5.52901 147.64 5.856 147.64 6.248V6.696C147.64 6.789 147.594 6.836 147.5 6.836H142.978C142.941 6.836 142.922 6.855 142.922 6.892C142.941 7.405 142.969 7.737 143.006 7.886C143.109 8.306 143.328 8.637 143.664 8.88C144 9.123 144.43 9.244 144.952 9.244C145.344 9.244 145.69 9.155 145.988 8.978C146.287 8.801 146.52 8.549 146.688 8.222C146.744 8.138 146.81 8.119 146.884 8.166L147.43 8.48801C147.505 8.53501 147.524 8.60001 147.486 8.68401C147.253 9.13201 146.903 9.487 146.436 9.748C145.97 10 145.433 10.126 144.826 10.126C144.164 10.117 143.608 9.95799 143.16 9.64999C142.712 9.34199 142.39 8.913 142.194 8.362C142.026 7.914 141.942 7.26999 141.942 6.42999C141.942 6.03799 141.947 5.721 141.956 5.478C141.975 5.226 142.012 5.002 142.068 4.806C142.227 4.199 142.544 3.71401 143.02 3.35001C143.506 2.98601 144.089 2.804 144.77 2.804C145.62 2.804 146.273 3.019 146.73 3.448C147.188 3.877 147.472 4.48401 147.584 5.26801ZM144.77 3.672C144.313 3.672 143.93 3.793 143.622 4.036C143.324 4.269 143.128 4.58701 143.034 4.98801C142.978 5.18401 142.941 5.501 142.922 5.94C142.922 5.977 142.941 5.996 142.978 5.996H146.604C146.642 5.996 146.66 5.977 146.66 5.94C146.642 5.52 146.614 5.22101 146.576 5.04401C146.474 4.62401 146.264 4.293 145.946 4.05C145.638 3.798 145.246 3.672 144.77 3.672ZM152.473 2.84599C152.781 2.84599 153.047 2.907 153.271 3.028C153.346 3.065 153.374 3.12601 153.355 3.21001L153.201 3.896C153.173 3.989 153.112 4.017 153.019 3.98C152.86 3.915 152.678 3.882 152.473 3.882L152.291 3.896C151.806 3.915 151.404 4.097 151.087 4.442C150.77 4.778 150.611 5.207 150.611 5.73V9.86C150.611 9.953 150.564 10 150.471 10H149.757C149.664 10 149.617 9.953 149.617 9.86V3.056C149.617 2.963 149.664 2.916 149.757 2.916H150.471C150.564 2.916 150.611 2.963 150.611 3.056V3.91C150.611 3.938 150.616 3.957 150.625 3.966C150.644 3.966 150.658 3.957 150.667 3.938C150.863 3.593 151.11 3.327 151.409 3.14C151.717 2.944 152.072 2.84599 152.473 2.84599ZM157 10.07C156.477 10.07 156.01 9.98599 155.6 9.81799C155.198 9.64999 154.886 9.426 154.662 9.146C154.447 8.866 154.34 8.55299 154.34 8.20799V8.03999C154.34 7.94699 154.386 7.89999 154.48 7.89999H155.152C155.245 7.89999 155.292 7.94699 155.292 8.03999V8.15199C155.292 8.45999 155.45 8.731 155.768 8.964C156.094 9.188 156.5 9.3 156.986 9.3C157.471 9.3 157.863 9.193 158.162 8.978C158.46 8.754 158.61 8.474 158.61 8.138C158.61 7.905 158.53 7.713 158.372 7.564C158.222 7.415 158.04 7.298 157.826 7.214C157.62 7.13 157.298 7.023 156.86 6.892C156.337 6.743 155.908 6.593 155.572 6.444C155.236 6.295 154.951 6.089 154.718 5.828C154.494 5.557 154.382 5.217 154.382 4.806C154.382 4.209 154.615 3.73301 155.082 3.37801C155.548 3.02301 156.164 2.84599 156.93 2.84599C157.443 2.84599 157.896 2.93001 158.288 3.09801C158.689 3.26601 158.997 3.499 159.212 3.798C159.426 4.087 159.534 4.414 159.534 4.778V4.82001C159.534 4.91301 159.487 4.96001 159.394 4.96001H158.736C158.642 4.96001 158.596 4.91301 158.596 4.82001V4.778C158.596 4.461 158.442 4.195 158.134 3.98C157.835 3.765 157.429 3.658 156.916 3.658C156.44 3.658 156.057 3.756 155.768 3.952C155.478 4.139 155.334 4.39999 155.334 4.73599C155.334 5.05299 155.474 5.296 155.754 5.464C156.034 5.632 156.468 5.8 157.056 5.968C157.597 6.127 158.036 6.276 158.372 6.416C158.708 6.556 158.997 6.761 159.24 7.032C159.482 7.293 159.604 7.63899 159.604 8.06799C159.604 8.67499 159.366 9.16 158.89 9.524C158.414 9.888 157.784 10.07 157 10.07ZM164.118 10.112C163.446 10.112 162.867 9.93899 162.382 9.59399C161.897 9.24899 161.561 8.773 161.374 8.166C161.243 7.737 161.178 7.163 161.178 6.444C161.178 5.725 161.243 5.15599 161.374 4.73599C161.551 4.13899 161.883 3.66701 162.368 3.32201C162.853 2.97701 163.441 2.804 164.132 2.804C164.795 2.804 165.364 2.97701 165.84 3.32201C166.325 3.66701 166.657 4.134 166.834 4.722C166.965 5.123 167.03 5.697 167.03 6.444C167.03 7.2 166.965 7.774 166.834 8.166C166.657 8.773 166.325 9.24899 165.84 9.59399C165.364 9.93899 164.79 10.112 164.118 10.112ZM164.118 9.244C164.566 9.244 164.949 9.123 165.266 8.88C165.583 8.62801 165.798 8.29199 165.91 7.87199C165.994 7.53599 166.036 7.06499 166.036 6.45799C166.036 5.84199 165.999 5.37101 165.924 5.04401C165.812 4.62401 165.593 4.293 165.266 4.05C164.949 3.798 164.561 3.672 164.104 3.672C163.647 3.672 163.259 3.798 162.942 4.05C162.625 4.293 162.41 4.62401 162.298 5.04401C162.223 5.37101 162.186 5.84199 162.186 6.45799C162.186 7.07399 162.223 7.54499 162.298 7.87199C162.401 8.29199 162.611 8.62801 162.928 8.88C163.255 9.123 163.651 9.244 164.118 9.244ZM171.985 2.81799C172.731 2.81799 173.324 3.037 173.763 3.476C174.211 3.915 174.435 4.50301 174.435 5.24001V9.86C174.435 9.953 174.388 10 174.295 10H173.581C173.487 10 173.441 9.953 173.441 9.86V5.436C173.441 4.923 173.282 4.503 172.965 4.17599C172.657 3.84899 172.255 3.686 171.761 3.686C171.247 3.686 170.832 3.845 170.515 4.162C170.197 4.479 170.039 4.895 170.039 5.408V9.86C170.039 9.953 169.992 10 169.899 10H169.185C169.091 10 169.045 9.953 169.045 9.86V3.056C169.045 2.963 169.091 2.916 169.185 2.916H169.899C169.992 2.916 170.039 2.963 170.039 3.056V3.658C170.039 3.677 170.043 3.691 170.053 3.7C170.071 3.709 170.085 3.705 170.095 3.686C170.505 3.107 171.135 2.81799 171.985 2.81799ZM179.042 2.804C179.882 2.804 180.53 3.019 180.988 3.448C181.445 3.877 181.674 4.44701 181.674 5.15601V9.86C181.674 9.953 181.627 10 181.534 10H180.82C180.726 10 180.68 9.953 180.68 9.86V9.286C180.68 9.267 180.67 9.253 180.652 9.244C180.642 9.235 180.628 9.239 180.61 9.258C180.376 9.538 180.073 9.75299 179.7 9.90199C179.326 10.042 178.911 10.112 178.454 10.112C177.791 10.112 177.236 9.944 176.788 9.608C176.34 9.272 176.116 8.75899 176.116 8.06799C176.116 7.36799 176.368 6.817 176.872 6.416C177.385 6.005 178.094 5.8 179 5.8H180.624C180.661 5.8 180.68 5.781 180.68 5.744V5.21201C180.68 4.73601 180.544 4.363 180.274 4.092C180.012 3.812 179.602 3.672 179.042 3.672C178.594 3.672 178.23 3.761 177.95 3.938C177.67 4.106 177.497 4.34399 177.432 4.65199C177.404 4.74499 177.348 4.787 177.264 4.778L176.508 4.67999C176.405 4.66099 176.363 4.62399 176.382 4.56799C176.456 4.04499 176.736 3.62101 177.222 3.29401C177.707 2.96701 178.314 2.804 179.042 2.804ZM178.65 9.258C179.2 9.258 179.676 9.123 180.078 8.85201C180.479 8.57201 180.68 8.19899 180.68 7.73199V6.64C180.68 6.603 180.661 6.584 180.624 6.584H179.154C178.538 6.584 178.043 6.71001 177.67 6.96201C177.296 7.21401 177.11 7.56399 177.11 8.01199C177.11 8.42299 177.25 8.735 177.53 8.95C177.819 9.155 178.192 9.258 178.65 9.258ZM183.882 10C183.789 10 183.742 9.953 183.742 9.86V0.339996C183.742 0.246996 183.789 0.199997 183.882 0.199997H184.596C184.689 0.199997 184.736 0.246996 184.736 0.339996V9.86C184.736 9.953 184.689 10 184.596 10H183.882ZM187.641 1.62801C187.417 1.62801 187.23 1.55301 187.081 1.40401C186.931 1.25501 186.857 1.06799 186.857 0.843994C186.857 0.610994 186.931 0.423997 187.081 0.283997C187.23 0.134997 187.417 0.0599976 187.641 0.0599976C187.865 0.0599976 188.051 0.134997 188.201 0.283997C188.35 0.423997 188.425 0.610994 188.425 0.843994C188.425 1.06799 188.35 1.25501 188.201 1.40401C188.051 1.55301 187.865 1.62801 187.641 1.62801ZM187.249 9.98599C187.155 9.98599 187.109 9.93899 187.109 9.84599V3.04201C187.109 2.94901 187.155 2.90199 187.249 2.90199H187.963C188.056 2.90199 188.103 2.94901 188.103 3.04201V9.84599C188.103 9.93899 188.056 9.98599 187.963 9.98599H187.249ZM190.033 10C189.94 10 189.893 9.953 189.893 9.86V9.188C189.893 9.123 189.912 9.067 189.949 9.02L193.925 3.896C193.944 3.877 193.948 3.863 193.939 3.854C193.93 3.835 193.916 3.826 193.897 3.826H190.089C189.996 3.826 189.949 3.779 189.949 3.686V3.056C189.949 2.963 189.996 2.916 190.089 2.916H195.003C195.096 2.916 195.143 2.963 195.143 3.056V3.728C195.143 3.793 195.124 3.849 195.087 3.896L191.069 9.02C191.05 9.039 191.046 9.057 191.055 9.076C191.064 9.085 191.078 9.09 191.097 9.09H195.003C195.096 9.09 195.143 9.137 195.143 9.23V9.86C195.143 9.953 195.096 10 195.003 10H190.033ZM202.203 5.26801C202.241 5.52901 202.259 5.856 202.259 6.248V6.696C202.259 6.789 202.213 6.836 202.119 6.836H197.597C197.56 6.836 197.541 6.855 197.541 6.892C197.56 7.405 197.588 7.737 197.625 7.886C197.728 8.306 197.947 8.637 198.283 8.88C198.619 9.123 199.049 9.244 199.571 9.244C199.963 9.244 200.309 9.155 200.607 8.978C200.906 8.801 201.139 8.549 201.307 8.222C201.363 8.138 201.429 8.119 201.503 8.166L202.049 8.48801C202.124 8.53501 202.143 8.60001 202.105 8.68401C201.872 9.13201 201.522 9.487 201.055 9.748C200.589 10 200.052 10.126 199.445 10.126C198.783 10.117 198.227 9.95799 197.779 9.64999C197.331 9.34199 197.009 8.913 196.813 8.362C196.645 7.914 196.561 7.26999 196.561 6.42999C196.561 6.03799 196.566 5.721 196.575 5.478C196.594 5.226 196.631 5.002 196.687 4.806C196.846 4.199 197.163 3.71401 197.639 3.35001C198.125 2.98601 198.708 2.804 199.389 2.804C200.239 2.804 200.892 3.019 201.349 3.448C201.807 3.877 202.091 4.48401 202.203 5.26801ZM199.389 3.672C198.932 3.672 198.549 3.793 198.241 4.036C197.943 4.269 197.747 4.58701 197.653 4.98801C197.597 5.18401 197.56 5.501 197.541 5.94C197.541 5.977 197.56 5.996 197.597 5.996H201.223C201.261 5.996 201.279 5.977 201.279 5.94C201.261 5.52 201.233 5.22101 201.195 5.04401C201.093 4.62401 200.883 4.293 200.565 4.05C200.257 3.798 199.865 3.672 199.389 3.672ZM212.541 4.67999C212.681 5.12799 212.751 5.72099 212.751 6.45799C212.751 7.20499 212.69 7.783 212.569 8.194C212.401 8.791 212.093 9.263 211.645 9.608C211.206 9.944 210.651 10.112 209.979 10.112C209.615 10.112 209.279 10.042 208.971 9.90199C208.663 9.75299 208.406 9.543 208.201 9.272C208.182 9.253 208.164 9.249 208.145 9.258C208.136 9.258 208.131 9.267 208.131 9.286V12.576C208.131 12.669 208.084 12.716 207.991 12.716H207.277C207.184 12.716 207.137 12.669 207.137 12.576V3.056C207.137 2.963 207.184 2.916 207.277 2.916H207.991C208.084 2.916 208.131 2.963 208.131 3.056V3.644C208.131 3.663 208.136 3.677 208.145 3.686C208.164 3.686 208.182 3.677 208.201 3.658C208.406 3.387 208.658 3.177 208.957 3.028C209.265 2.879 209.606 2.804 209.979 2.804C210.632 2.804 211.178 2.972 211.617 3.308C212.065 3.644 212.373 4.10099 212.541 4.67999ZM211.435 8.222C211.538 8.017 211.612 7.788 211.659 7.536C211.715 7.275 211.743 6.91499 211.743 6.45799C211.743 6.01899 211.724 5.679 211.687 5.436C211.65 5.184 211.584 4.96001 211.491 4.76401C211.379 4.42801 211.178 4.162 210.889 3.966C210.609 3.77 210.273 3.672 209.881 3.672C209.508 3.672 209.195 3.77 208.943 3.966C208.691 4.162 208.504 4.423 208.383 4.75C208.299 4.937 208.238 5.156 208.201 5.408C208.164 5.66 208.145 6.00999 208.145 6.45799C208.145 6.90599 208.164 7.261 208.201 7.522C208.238 7.774 208.304 7.998 208.397 8.194C208.509 8.511 208.691 8.768 208.943 8.964C209.204 9.151 209.512 9.244 209.867 9.244C210.24 9.244 210.562 9.151 210.833 8.964C211.113 8.777 211.314 8.53 211.435 8.222ZM214.904 10C214.81 10 214.764 9.953 214.764 9.86V0.339996C214.764 0.246996 214.81 0.199997 214.904 0.199997H215.618C215.711 0.199997 215.758 0.246996 215.758 0.339996V9.86C215.758 9.953 215.711 10 215.618 10H214.904ZM220.44 2.804C221.28 2.804 221.929 3.019 222.386 3.448C222.843 3.877 223.072 4.44701 223.072 5.15601V9.86C223.072 9.953 223.025 10 222.932 10H222.218C222.125 10 222.078 9.953 222.078 9.86V9.286C222.078 9.267 222.069 9.253 222.05 9.244C222.041 9.235 222.027 9.239 222.008 9.258C221.775 9.538 221.471 9.75299 221.098 9.90199C220.725 10.042 220.309 10.112 219.852 10.112C219.189 10.112 218.634 9.944 218.186 9.608C217.738 9.272 217.514 8.75899 217.514 8.06799C217.514 7.36799 217.766 6.817 218.27 6.416C218.783 6.005 219.493 5.8 220.398 5.8H222.022C222.059 5.8 222.078 5.781 222.078 5.744V5.21201C222.078 4.73601 221.943 4.363 221.672 4.092C221.411 3.812 221 3.672 220.44 3.672C219.992 3.672 219.628 3.761 219.348 3.938C219.068 4.106 218.895 4.34399 218.83 4.65199C218.802 4.74499 218.746 4.787 218.662 4.778L217.906 4.67999C217.803 4.66099 217.761 4.62399 217.78 4.56799C217.855 4.04499 218.135 3.62101 218.62 3.29401C219.105 2.96701 219.712 2.804 220.44 2.804ZM220.048 9.258C220.599 9.258 221.075 9.123 221.476 8.85201C221.877 8.57201 222.078 8.19899 222.078 7.73199V6.64C222.078 6.603 222.059 6.584 222.022 6.584H220.552C219.936 6.584 219.441 6.71001 219.068 6.96201C218.695 7.21401 218.508 7.56399 218.508 8.01199C218.508 8.42299 218.648 8.735 218.928 8.95C219.217 9.155 219.591 9.258 220.048 9.258ZM228.081 2.81799C228.827 2.81799 229.42 3.037 229.859 3.476C230.307 3.915 230.531 4.50301 230.531 5.24001V9.86C230.531 9.953 230.484 10 230.391 10H229.677C229.583 10 229.537 9.953 229.537 9.86V5.436C229.537 4.923 229.378 4.503 229.061 4.17599C228.753 3.84899 228.351 3.686 227.857 3.686C227.343 3.686 226.928 3.845 226.611 4.162C226.293 4.479 226.135 4.895 226.135 5.408V9.86C226.135 9.953 226.088 10 225.995 10H225.281C225.187 10 225.141 9.953 225.141 9.86V3.056C225.141 2.963 225.187 2.916 225.281 2.916H225.995C226.088 2.916 226.135 2.963 226.135 3.056V3.658C226.135 3.677 226.139 3.691 226.149 3.7C226.167 3.709 226.181 3.705 226.191 3.686C226.601 3.107 227.231 2.81799 228.081 2.81799Z" fill="#626C72"/>
</svg>
