<svg width="26" height="316" viewBox="0 0 26 316" fill="none" xmlns="http://www.w3.org/2000/svg">
<path d="M25.051 0.181H0.812988V5.51801H25.051V0.181ZM25.051 34.658H0.812988V39.995H25.051V34.658ZM25.051 69.135H0.812988V74.472H25.051V69.135ZM25.051 103.612H0.812988V108.949H25.051V103.612ZM25.051 138.089H0.812988V143.426H25.051V138.089ZM25.051 172.566H0.812988V177.903H25.051V172.566ZM25.051 207.043H0.812988V212.38H25.051V207.043ZM25.051 241.52H0.812988V246.857H25.051V241.52ZM25.051 275.997H0.812988V281.333H25.051V275.997ZM25.051 310.473H0.812988V315.81H25.051V310.473ZM25.051 17.419H10.038V22.756H25.051V17.419ZM25.051 51.896H10.038V57.233H25.051V51.896ZM25.051 86.373H10.038V91.71H25.051V86.373ZM25.051 120.85H10.038V126.187H25.051V120.85ZM25.051 155.327H10.038V160.664H25.051V155.327ZM25.051 189.804H10.038V195.141H25.051V189.804ZM25.051 224.281H10.038V229.618H25.051V224.281ZM25.051 258.758H10.038V264.095H25.051V258.758ZM25.051 293.235H10.038V298.572H25.051V293.235Z" fill="#F1F4F8"/>
</svg>
